<!-- Generated by IcoMoon.io -->
<svg version="1.1" xmlns="http://www.w3.org/2000/svg" width="1024" height="1024" viewBox="0 0 1024 1024">
<title></title>
<g id="icomoon-ignore">
</g>
<path d="M288.608 894.976c-1.888 0-3.712-0.544-5.312-1.568-2.24-1.472-3.744-3.808-4.224-6.432l-64.352-373.856-66.24-244.576c-0.768-2.848-0.192-5.888 1.536-8.256s4.512-3.808 7.424-3.904l115.104-3.84 451.584-115.872c2.624-0.672 5.408-0.224 7.648 1.248s3.808 3.808 4.256 6.464l64.352 371.84 71.264 249.184c0.832 2.848 0.256 5.888-1.472 8.32-1.76 2.368-4.48 3.872-7.456 3.936l-110.144 4.192-461.728 112.832c-0.768 0.192-1.536 0.288-2.304 0.288zM170.304 275.232l63.2 233.28c0.096 0.288 0.16 0.576 0.192 0.896l62.688 364.128 452.608-110.624c0.64-0.16 1.28-0.256 1.952-0.256l98.848-3.776-68.032-237.856c-0.096-0.32-0.16-0.672-0.224-1.024l-62.656-362.080-442.496 113.568c-0.672 0.16-1.376 0.288-2.080 0.288l-103.968 3.456zM731.232 894.976c-0.768 0-1.536-0.096-2.304-0.288l-462.112-113.6-109.792-4.576c-2.976-0.128-5.696-1.6-7.424-4s-2.272-5.472-1.44-8.288l71.648-248.768 64.736-371.84c0.448-2.656 2.016-4.992 4.256-6.464s5.024-1.92 7.648-1.216l451.616 116.672 115.104 4.224c2.944 0.128 5.664 1.536 7.456 3.936s2.304 5.408 1.504 8.256l-66.624 244.192-64.736 373.856c-0.48 2.624-1.984 4.96-4.224 6.432-1.6 1.024-3.424 1.568-5.28 1.568zM170.080 757.728l98.496 4.128c0.64 0.032 1.28 0.128 1.888 0.256l452.992 111.36 63.072-364.128c0.064-0.288 0.128-0.576 0.192-0.896l63.552-232.896-104-3.808c-0.704-0.032-1.376-0.128-2.048-0.288l-442.528-114.304-63.040 362.080c-0.064 0.352-0.16 0.672-0.256 1.024l-68.352 237.472zM41.664 524.544c-1.344 0-2.72-0.288-4.032-0.896-4.832-2.208-6.944-7.968-4.704-12.8l113.824-245.92-20.448-144.192c-0.416-3.040 0.608-6.080 2.784-8.224s5.248-3.136 8.288-2.656l154.72 24.576 213.664-109.344c4.736-2.432 10.56-0.544 12.992 4.192s0.544 10.56-4.192 12.992l-216.48 110.752c-1.824 0.928-3.872 1.248-5.888 0.928l-144.928-23.040 19.008 134.112c0.256 1.824 0 3.712-0.8 5.408l-114.976 248.512c-1.632 3.52-5.12 5.6-8.768 5.6zM978.56 524.544c-3.648 0-7.136-2.080-8.736-5.6l-115.008-248.512c-0.768-1.696-1.056-3.552-0.8-5.376l18.624-134.016-144.896 24.096c-2.048 0.352-4.16 0-6.016-0.928l-216.096-111.936c-4.736-2.464-6.592-8.256-4.128-12.992s8.288-6.592 12.992-4.128l213.248 110.432 154.656-25.728c3.040-0.48 6.112 0.448 8.32 2.624s3.264 5.216 2.816 8.224l-20.064 144.224 113.792 245.952c2.24 4.832 0.16 10.592-4.704 12.8-1.28 0.608-2.688 0.896-4 0.896zM510.112 1005.696c-1.472 0-2.912-0.32-4.32-1.024l-218.304-109.344-150.112 24.576c-3.040 0.512-6.144-0.48-8.352-2.656s-3.232-5.216-2.784-8.288l20.8-140.736-114.176-248.96c-2.208-4.832-0.096-10.592 4.768-12.8s10.56-0.096 12.8 4.736l115.392 251.584c0.768 1.696 1.056 3.584 0.768 5.44l-19.296 130.496 140.16-22.944c2.016-0.352 4.064 0 5.888 0.864l221.12 110.752c4.768 2.368 6.688 8.192 4.32 12.928-1.696 3.392-5.12 5.344-8.64 5.344zM510.112 1005.696c-3.52 0-6.912-1.92-8.64-5.312-2.4-4.768-0.48-10.56 4.256-12.96l220.352-111.136c1.824-0.928 3.904-1.248 5.92-0.896l140.48 23.296-19.616-130.048c-0.256-1.856 0-3.776 0.8-5.472l116.16-252c2.24-4.832 7.968-6.944 12.8-4.704s6.944 7.968 4.736 12.8l-114.944 249.344 21.184 140.288c0.48 3.040-0.576 6.144-2.784 8.288s-5.312 3.136-8.352 2.656l-150.464-24.96-217.504 109.728c-1.408 0.704-2.88 1.024-4.352 1.024zM293.632 154.112c-3.52 0-6.912-1.952-8.608-5.312l-47.072-93.376c-2.4-4.768-0.48-10.56 4.256-12.96s10.56-0.48 12.96 4.288l47.072 93.376c2.4 4.768 0.48 10.56-4.256 12.96-1.408 0.672-2.88 1.024-4.352 1.024zM157.792 276.032c-1.216 0-2.464-0.256-3.68-0.736l-89.504-37.024c-4.928-2.048-7.264-7.68-5.216-12.608s7.68-7.296 12.576-5.216l89.536 37.056c4.928 2.016 7.264 7.68 5.216 12.608-1.536 3.712-5.12 5.952-8.928 5.952zM726.592 155.648c-1.504 0-3.040-0.352-4.48-1.12-4.736-2.496-6.496-8.32-4.064-13.024l49.792-94.528c2.496-4.704 8.32-6.528 13.024-4.064s6.496 8.32 4.032 13.024l-49.792 94.528c-1.728 3.264-5.056 5.152-8.544 5.152zM862.048 276.032c-3.968 0-7.648-2.432-9.088-6.4-1.792-5.024 0.832-10.528 5.824-12.352l91.456-32.8c4.992-1.792 10.528 0.8 12.352 5.824s-0.832 10.528-5.824 12.352l-91.456 32.8c-1.088 0.384-2.176 0.576-3.264 0.576zM953.888 805.856c-0.96 0-1.92-0.16-2.848-0.416l-91.456-28.192c-5.088-1.568-7.936-6.976-6.368-12.064s6.976-7.936 12.064-6.368l91.456 28.16c5.088 1.568 7.936 6.976 6.368 12.064-1.312 4.128-5.12 6.784-9.216 6.784zM777.152 986.816c-3.488 0-6.88-1.92-8.576-5.248l-47.488-92.608c-2.432-4.736-0.544-10.528 4.192-12.992s10.56-0.544 12.992 4.192l47.456 92.608c2.432 4.736 0.544 10.56-4.16 12.992-1.408 0.736-2.912 1.056-4.384 1.056zM238.816 986.432c-1.536 0-3.136-0.384-4.608-1.184-4.672-2.528-6.432-8.416-3.872-13.088l49.792-91.84c2.528-4.672 8.384-6.4 13.088-3.904s6.432 8.416 3.872 13.088l-49.792 91.84c-1.728 3.232-5.056 5.088-8.48 5.088zM67.904 810.848c-3.904 0-7.584-2.4-9.024-6.272-1.856-4.992 0.64-10.56 5.632-12.416l89.504-33.568c4.992-1.856 10.56 0.672 12.416 5.664s-0.672 10.56-5.632 12.416l-89.536 33.568c-1.12 0.416-2.272 0.608-3.392 0.608zM607.392 1005.76c-0.032 0 0 0 0 0-17.216 0-34.624-0.192-53.024-0.416-14.464-0.16-29.216-0.352-44.288-0.384-15.008 0.096-29.76 0.256-44.224 0.384-18.432 0.224-35.84 0.416-53.024 0.416-106.816 0-208.928-6.72-283.744-88.064-96.16-102.016-96.48-212.384-96.928-365.184-0.032-12.096-0.064-24.512-0.16-37.184 0-0.032 0-0.448 0-0.48v-0.384c0.096-12.768 0.128-25.152 0.16-37.28 0.448-152.768 0.768-263.168 96.992-365.28 74.752-81.216 176.832-87.968 283.648-87.968 17.216 0 34.624 0.192 53.024 0.416 14.464 0.16 29.216 0.32 44.288 0.416 15.008-0.064 29.76-0.224 44.224-0.416 18.432-0.192 35.84-0.384 53.024-0.384 106.816 0 208.928 6.72 283.744 88.064 96.16 102.016 96.48 212.384 96.928 365.184 0.064 12.128 0.096 24.512 0.16 37.184v0.448c0 0.032 0 0.448 0 0.448-0.064 12.704-0.096 25.088-0.16 37.184-0.48 152.8-0.8 263.168-96.992 365.28-74.752 81.216-176.832 87.968-283.648 87.968zM510.080 985.632c15.2 0.096 30.016 0.256 44.512 0.416 18.368 0.224 35.712 0.416 52.832 0.416 106.272 0 199.936-6.176 269.536-81.824 91.072-96.64 91.392-203.84 91.84-352.192 0.032-12.16 0.064-24.544 0.16-37.28v-0.672c-0.096-12.64-0.128-25.056-0.16-37.184-0.48-148.352-0.768-255.552-91.776-352.096-69.696-75.744-163.36-81.888-269.632-81.888-17.088 0-34.432 0.192-52.832 0.384-14.496 0.16-29.28 0.32-44.416 0.416-15.232-0.064-30.016-0.256-44.512-0.416-18.368-0.192-35.712-0.416-52.8-0.416-106.304 0-199.904 6.144-269.536 81.824-91.072 96.64-91.392 203.84-91.808 352.192-0.032 12.128-0.064 24.576-0.16 37.28v0.32c0.064 13.024 0.128 25.472 0.16 37.568 0.448 148.352 0.768 255.552 91.744 352.096 69.696 75.744 163.328 81.92 269.6 81.92 17.088 0 34.432-0.192 52.8-0.416 14.496-0.16 29.28-0.352 44.416-0.416z"></path>
</svg>
