<!-- Generated by IcoMoon.io -->
<svg version="1.1" xmlns="http://www.w3.org/2000/svg" width="1024" height="1024" viewBox="0 0 1024 1024">
<title></title>
<g id="icomoon-ignore">
</g>
<path d="M120.288 316.032c-1.568 0-3.52-0.384-5.056-1.184-2.72-1.568-4.672-4.672-4.672-7.776l-12.448-178.816c-0.384-3.104 1.184-5.824 3.136-7.776 2.336-1.952 5.472-2.752 8.192-2.336l166.336 32.32 236.096 28.064c4.672 0.384 8.192 4.288 8.576 8.96s-2.72 8.96-7.392 10.112l-282.048 65.472-106.368 52.192c-1.184 0.384-2.72 0.768-4.288 0.768zM118.752 139.552l10.528 151.936 94.272-45.952c0.768-0.384 1.184-0.384 1.952-0.768l229.472-52.992-181.536-22.208c-0.384 0-0.384 0-0.768 0l-153.888-30.016zM372.352 693.568c-1.952 0-3.904-0.8-5.824-1.952l-128.16-92.352-171.424-105.184c-3.488-2.336-5.472-6.624-4.288-10.912l48.32-179.2c1.184-3.52 3.904-6.208 7.808-7.008 3.52-0.768 7.392 0.8 9.728 3.904l86.88 121.152c0 0 0 0.384 0.384 0.384l164.416 255.168c1.568 1.568 2.336 3.904 2.336 6.24-0.384 5.024-4.672 9.728-10.144 9.728v0zM83.296 481.216l165.184 101.696c0.384 0 0.384 0.384 0.384 0.384l86.88 62.72-136.352-212.736-74.784-104.416-41.312 152.32zM511.040 982.624c-4.288 0-7.776-2.72-9.344-6.624l-44.8-140.64-192.448-43.616c-3.904-0.768-7.008-4.288-7.424-8.192l-22.592-190.496-37.792-165.952c-0.384-1.184-0.384-2.336 0-3.52l23.776-171.424c0-1.184 0.384-1.952 0.768-3.104l44.032-89.6-30.4-97.408c-1.568-5.088 1.184-10.528 6.24-12.064s10.528 1.152 12.096 6.24l31.552 100.896c0.768 2.336 0.384 5.088-0.384 7.008l-45.184 92.32-23.392 167.904 37.408 164.8c0 0.384 0 0.768 0 1.184l21.824 184.288 191.296 43.232c3.52 0.8 6.24 3.136 7.008 6.624l46.752 145.696c1.568 5.088-1.184 10.528-6.24 12.096-0.8 0.384-1.568 0.384-2.72 0.384zM464.288 837.312c-0.384 0-0.768 0-1.568 0-2.72-0.384-5.44-1.952-7.008-4.288l-91.936-143.36c-2.72-3.904-1.952-9.376 1.568-12.48s8.576-3.52 12.448-0.768l138.688 102.848c2.336 1.952 3.904 4.672 3.904 7.392 0 3.136-1.184 5.856-3.52 7.808l-46.752 40.928c-1.184 0.768-3.52 1.952-5.856 1.952zM409.376 723.168l57.28 89.216 29.216-25.312-86.496-63.904zM407.808 916.416c-1.952 0-3.904-0.416-5.472-1.952-4.288-3.136-5.44-9.376-2.336-13.632l56.096-79.872c3.136-4.288 9.344-5.44 13.632-2.336s5.472 9.344 2.336 13.632l-56.096 79.84c-1.952 2.72-5.056 4.288-8.16 4.288zM121.088 316.448c-0.8 0-1.184 0-1.952 0l-91.936-17.536c-5.44-1.152-8.576-6.24-7.808-11.296 1.152-5.472 6.24-8.576 11.296-7.808l91.936 17.536c5.472 1.184 8.576 6.24 7.808 11.296-0.768 4.672-5.056 7.776-9.344 7.776zM275.744 169.952c-3.136 0-5.824-1.568-7.776-3.904-3.136-4.288-2.336-10.528 2.336-13.632l117.664-85.312c4.288-3.136 10.528-2.336 13.632 2.336 3.136 4.288 2.336 10.528-2.336 13.632l-118.048 84.928c-1.568 1.568-3.52 1.952-5.44 1.952zM150.656 642.912c-3.904 0-7.392-2.336-8.96-5.856-2.336-5.056 0-10.528 5.088-12.864l93.504-41.664c5.056-2.336 10.528 0 12.864 5.056s0 10.528-5.056 12.864l-93.504 41.664c-1.184 0.384-2.72 0.768-3.904 0.768zM901.792 316.032c-1.568 0-3.136-0.384-4.288-1.184l-105.984-51.808-282.432-65.472c-4.672-1.184-7.776-5.44-7.392-10.112s3.872-8.576 8.576-8.96l236.096-28.064 166.336-32.352c3.136-0.384 6.24 0.416 8.192 2.336 2.336 1.952 3.52 5.056 3.104 7.776l-12.48 178.816c-0.384 3.136-1.952 6.24-4.672 7.808-1.568 0.768-3.104 1.152-5.056 1.152zM567.52 191.392l229.472 52.96c0.768 0 1.568 0.416 1.952 0.768l94.272 45.952 10.528-151.936-154.272 30.016c-0.384 0-0.384 0-0.768 0l-181.152 22.208zM650.144 693.568c-2.336 0-4.672-0.8-6.624-2.72-3.52-3.104-3.904-8.576-1.568-12.48l164.8-255.968c0 0 0-0.384 0.384-0.384l86.88-121.184c2.336-3.104 5.824-4.672 9.728-3.872s6.624 3.52 7.808 7.008l48.288 179.232c1.184 4.288-0.768 8.576-4.288 10.912l-171.040 105.216-128.576 92.352c-1.952 1.184-3.904 1.952-5.856 1.952zM823.104 433.312l-137.152 212.736 86.88-62.72 0.384-0.416 165.184-101.696-41.28-152.32-74.016 104.416zM511.424 982.624c-1.184 0-1.952 0-3.136-0.416-5.056-1.536-7.776-7.008-6.24-12.064l46.752-145.696c1.184-3.136 3.904-5.856 7.008-6.624l191.296-43.264 21.824-184.256c0-0.384 0-0.768 0-1.184l37.408-164.8-23.36-167.904-45.184-91.552c-1.184-2.336-1.184-4.672-0.384-7.008l31.552-100.896c1.568-5.056 7.008-8.192 12.064-6.24 5.088 1.568 8.192 7.040 6.24 12.096l-30.4 97.376 44 89.6c0.416 0.768 0.8 1.952 0.8 3.104l23.776 171.424c0 1.184 0 2.336 0 3.52l-37.792 165.952-22.592 190.496c-0.384 4.256-3.52 7.392-7.424 8.192l-192.064 42.848-45.184 140.672c-1.184 3.904-5.056 6.624-8.96 6.624zM511.040 983.008c-1.568 0-3.104-0.384-4.672-1.184-84.544-45.6-158.176-103.232-247.008-192.832-72.864-73.632-144.16-182.336-195.968-298.432-10.528-23.744-19.104-47.136-26.496-68.16l-1.568-4.672c-11.68-31.168-17.92-63.872-17.92-97.408 0.384-151.168 123.488-274.656 275.040-274.656 86.112 0 166.752 40.128 218.56 108.288 51.808-68.16 132.832-108.288 218.56-108.288 151.552 0 274.656 123.104 274.656 275.040 0 33.504-5.856 66.624-17.92 97.792l-1.184 3.104c-7.808 21.056-16.352 45.184-27.264 69.344-51.808 116.096-123.104 224.8-195.936 298.432-72.864 74.016-146.88 131.296-246.624 192.448-0.768 0.768-2.336 1.184-4.288 1.184zM292.48 65.12c-140.64 0-255.168 114.56-255.168 255.584 0 31.168 5.472 61.92 16.768 90.784l1.568 4.672c7.392 20.672 15.968 43.648 26.112 66.624 50.656 114.144 120.768 220.48 192.064 292.576 85.312 86.496 156.608 142.592 237.28 186.592 95.84-59.2 167.52-115.328 238.048-186.592 71.296-72.096 141.024-178.816 192.064-292.576 10.528-23.36 19.072-47.136 26.496-67.808l1.184-3.104c10.912-29.248 16.736-59.616 16.736-90.784 0-140.64-114.528-255.584-255.168-255.584-84.16 0-162.848 41.28-210.784 110.656-1.952 2.72-4.672 4.288-8.16 4.288s-6.24-1.568-8.192-4.288c-47.936-69.344-126.624-111.040-210.784-111.040zM558.176 837.312c-2.336 0-4.672-0.768-6.24-2.336l-46.752-40.896c-2.336-1.952-3.52-4.672-3.52-7.776s1.568-5.856 3.872-7.424l138.688-102.848c3.904-2.752 8.96-2.336 12.48 0.768s3.904 8.576 1.568 12.448l-91.936 143.36c-1.568 2.336-3.904 3.904-7.008 4.288-0.384 0-0.768 0.384-1.184 0.384zM526.624 787.456l29.216 25.312 57.28-89.216-86.496 63.904zM614.304 916.416c-3.136 0-6.24-1.568-7.808-4.288l-56.096-79.84c-3.136-4.288-1.952-10.496 2.336-13.632s10.496-1.952 13.632 2.336l56.096 79.872c3.136 4.288 1.952 10.528-2.336 13.632-1.568 1.152-3.904 1.952-5.856 1.952zM901.408 316.448c-4.672 0-8.576-3.136-9.76-7.776-1.152-5.472 2.336-10.528 7.808-11.296l91.936-17.536c5.44-1.184 10.496 2.336 11.296 7.776 1.184 5.472-2.336 10.528-7.808 11.296l-91.936 17.536c-0.384 0-0.8 0-1.568 0zM746.752 169.952c-1.952 0-3.904-0.768-5.856-1.952l-117.664-85.312c-4.288-3.136-5.44-9.344-2.336-13.632s9.344-5.472 13.632-2.336l118.048 85.696c4.288 3.136 5.44 9.344 2.336 13.632-2.336 2.72-5.088 3.904-8.192 3.904zM871.808 642.912c-1.184 0-2.72-0.384-3.904-0.768l-93.504-41.664c-5.088-2.336-7.040-7.808-5.088-12.864 2.336-5.056 7.808-7.008 12.864-5.056l93.504 41.664c5.088 2.336 7.040 7.808 5.088 12.864-1.568 3.52-5.472 5.856-8.96 5.856zM511.040 197.984c-5.472 0-9.728-4.288-9.728-9.728v-18.304c0-5.44 4.288-9.728 9.76-9.728s9.76 4.288 9.76 9.728v18.304c0 5.472-4.288 9.728-9.76 9.728z"></path>
</svg>
