<svg id="e664a242-bae6-48df-8d6f-9629bfd1cafb" data-name="Layer 1" xmlns="http://www.w3.org/2000/svg" viewBox="0 0 474.2 113.972"><title>narola-text</title><path d="M182.49,46.11a22.045,22.045,0,0,0,2.69.44c.91.07,1.79.1,2.63.1a20,20,0,0,0,6.69-1.07,13.266,13.266,0,0,0,5.13-3.37,15.366,15.366,0,0,0,3.32-5.57,24.014,24.014,0,0,0,1.17-7.86,24.436,24.436,0,0,0-.83-6.64,13.634,13.634,0,0,0-2.49-5,10.513,10.513,0,0,0-4.1-3.22,13.532,13.532,0,0,0-5.81-1.18,32.925,32.925,0,0,0-5.37.35,16.641,16.641,0,0,0-3,.73Zm0,14.8q0,4.16.1,7.27c.1,2,.2,3.83.29,5.33a37.455,37.455,0,0,0,.44,3.76,19.612,19.612,0,0,0,.59,2.53V80H172.19v-.2a25.692,25.692,0,0,0,.54-2.53,32.749,32.749,0,0,0,.44-3.76c.13-1.5.22-3.28.29-5.33s.15-4.47.15-7.27V29.12c0-2.77,0-5.17-.15-7.23s-.16-3.87-.29-5.37a32.749,32.749,0,0,0-.44-3.76,24.671,24.671,0,0,0-.54-2.58V10l2.05.2c.62.06,1.3.11,2,.14h2.39a38.821,38.821,0,0,0,5.13-.44,58.757,58.757,0,0,1,8.3-.49,28.273,28.273,0,0,1,8.64,1.27,20.391,20.391,0,0,1,6.94,3.72,16.594,16.594,0,0,1,4.54,6,18.461,18.461,0,0,1,1.66,8,22.176,22.176,0,0,1-.93,6.54,19.276,19.276,0,0,1-2.5,5.41,19.631,19.631,0,0,1-3.9,4.35,23.2,23.2,0,0,1-5.1,3.12l17.14,24.07c.84,1.21,1.62,2.25,2.34,3.13a30.919,30.919,0,0,0,2.1,2.29,19.986,19.986,0,0,0,1.95,1.57,8.964,8.964,0,0,0,1.91.92V80H212.72a8.335,8.335,0,0,0-1-2.44,23.162,23.162,0,0,0-1.86-3.08L192.6,50.12l-2.25.19h-2.29a27.352,27.352,0,0,1-2.78-.1,27.553,27.553,0,0,1-2.79-.34Zm-76.37-8.2h5.81c2,0,3.92-.05,5.81-.05h5.51l4.79-.1-13.72-31L100.84,52.71ZM137.76,80v-.2a2.928,2.928,0,0,0,.14-.73v-.88a14.307,14.307,0,0,0-.44-3.32,25.916,25.916,0,0,0-1.56-4.59L130.04,57c-1.82-.06-4.25-.1-7.27-.1H105.48c-2.38,0-4.52,0-6.44.1L93.41,69.89q-.739,1.81-1.56,4a11.813,11.813,0,0,0-.83,4.34,5.508,5.508,0,0,0,.09,1.08,2.01,2.01,0,0,0,.2.53V80h-9.9v-.2a16.967,16.967,0,0,0,2.2-3.27c.8-1.59,1.8-3.53,2.8-5.95l28-62.06h3.9l26.52,59.66c.61,1.4,1.25,2.77,1.9,4.11s1.32,2.47,1.9,3.51,1.11,1.92,1.57,2.64q.426.7.92,1.36V80ZM3.13,10,53.41,63.5V29.12c0-2.77,0-5.17-.1-7.23s-.16-3.87-.29-5.37a35.88,35.88,0,0,0-.49-3.81,20.965,20.965,0,0,0-.54-2.53V10h8.7v.2a20.965,20.965,0,0,0-.54,2.53c-.16,1-.31,2.28-.44,3.81s-.23,3.29-.29,5.37-.1,4.46-.1,7.23V81h-1.7L7.33,27.51v33.4q0,4.16.09,7.27c.07,2,.17,3.83.3,5.33s.27,2.75.44,3.76a23.432,23.432,0,0,0,.53,2.53V80H0v-.2a20.965,20.965,0,0,0,.54-2.53c.19-1,.36-2.27.49-3.76s.23-3.28.29-5.33.1-4.5.1-7.27V29.12c0-2.77,0-5.17-.1-7.23S1.16,18,1.03,16.52s-.3-2.8-.49-3.81A20.965,20.965,0,0,0,0,10.18V10Z" transform="translate(0 -8.47)" style="fill:#253646"/><path d="M429.19,52.71H435c2,0,3.92-.05,5.81-.05h5.51l4.79-.1L437.41,21.5l-13.5,31.21ZM460.83,80v-.2a2.928,2.928,0,0,0,.14-.73c0-.32.05-.62.05-.88a14.307,14.307,0,0,0-.44-3.32,25.916,25.916,0,0,0-1.56-4.59L453.11,57c-1.82-.06-4.25-.1-7.27-.1H428.55c-2.38,0-4.52,0-6.44.1l-5.62,12.89q-.74,1.81-1.56,4a11.813,11.813,0,0,0-.83,4.34,4.775,4.775,0,0,0,.1,1.08,1.778,1.778,0,0,0,.19.53V80h-9.98v-.2a16.967,16.967,0,0,0,2.2-3.27c.88-1.59,1.84-3.58,2.88-6l28-62.06h3.92l26.5,59.71c.61,1.4,1.25,2.77,1.9,4.11s1.32,2.47,1.9,3.51,1.11,1.92,1.57,2.64q.426.7.92,1.36V80ZM361.7,75.7a104.3,104.3,0,0,0,10.59-.49c3.22-.32,6-.7,8.45-1.12a76.19,76.19,0,0,0,7.67-1.61L387,80.39l-1.76-.1-2.64-.09-3-.1H351.41v-.2a20.965,20.965,0,0,0,.54-2.53c.19-1,.36-2.27.49-3.76s.23-3.28.29-5.33.1-4.5.1-7.27V29.12c0-2.77,0-5.17-.1-7.23s-.16-3.87-.29-5.37-.3-2.8-.49-3.81a20.965,20.965,0,0,0-.54-2.53V10h11.7v.2c-.19.68-.39,1.53-.58,2.53s-.31,2.28-.44,3.81-.2,3.29-.3,5.37-.09,4.46-.09,7.23Z" transform="translate(0 -8.47)" style="fill:#253646"/><path d="M351.01,112.79a4.063,4.063,0,0,0-.72-2.66,2.458,2.458,0,0,0-1.95-.84,2.9,2.9,0,0,0-1,.19,6.37,6.37,0,0,0-1.12.49,10.124,10.124,0,0,0-1.15.71,11.414,11.414,0,0,0-1.08.87v7.1a8.355,8.355,0,0,0,.08,1.49c.08.42.08.77.12,1a6.129,6.129,0,0,0,.16.72V122h-3.14c.05-.2.1-.43.15-.72.056-.331.1-.665.12-1,0-.42.06-.91.08-1.49s0-1.26,0-2v-5.3a8.646,8.646,0,0,0-.08-1.5c-.024-.335-.064-.669-.12-1-.05-.29-.1-.52-.15-.72h3.2a4.13,4.13,0,0,0-.18.88c0,.35-.08.8-.13,1.37.38-.31.78-.62,1.21-.93a9.872,9.872,0,0,1,1.35-.82,7.466,7.466,0,0,1,1.42-.59,4.535,4.535,0,0,1,1.42-.23,3.938,3.938,0,0,1,1.81.37,3.372,3.372,0,0,1,1.22,1,3.731,3.731,0,0,1,.68,1.38,5.5,5.5,0,0,1,.2,1.3v6.64a8.355,8.355,0,0,0,.08,1.49c.08.42.08.77.12,1s.1.52.15.72V122h-3.15a4.65,4.65,0,0,0,.15-.72,7.816,7.816,0,0,0,.13-1c0-.42.06-.91.08-1.49s0-1.26,0-2Zm-16.37-8.93a1.475,1.475,0,0,1,.11-.56,1.618,1.618,0,0,1,.32-.47,1.4,1.4,0,0,1,.45-.31,1.445,1.445,0,0,1,.59-.13,1.339,1.339,0,0,1,.57.13,1.38,1.38,0,0,1,.47.31,1.277,1.277,0,0,1,.31.47,1.306,1.306,0,0,1,.12.56,1.44,1.44,0,0,1-1.409,1.47h-.061a1.439,1.439,0,0,1-.59-.11,1.566,1.566,0,0,1-.45-.31,2.094,2.094,0,0,1-.32-.46A1.673,1.673,0,0,1,334.64,103.86Zm.29,9.49v-2c0-.55-.05-1.08-.08-1.5-.024-.335-.064-.669-.12-1a2.675,2.675,0,0,0-.15-.72h3.15a5.84,5.84,0,0,1-.15.72c-.05.29-.08.63-.12,1s-.06.92-.08,1.5,0,1.25,0,2v5.3a8.355,8.355,0,0,0,.08,1.49c.08.42.08.77.12,1s.1.52.15.72V122h-3.15c.05-.2.1-.43.15-.72.056-.331.1-.665.12-1,0-.42.06-.91.08-1.49s0-1.26,0-2Zm-6.59-.56a4.063,4.063,0,0,0-.72-2.66,2.44,2.44,0,0,0-1.94-.84,3.137,3.137,0,0,0-1,.19,7.252,7.252,0,0,0-1.13.49,9.259,9.259,0,0,0-1.15.74,10.135,10.135,0,0,0-1.07.87v7.07c0,.58.05,1.07.08,1.49a7.51,7.51,0,0,0,.13,1,4.65,4.65,0,0,0,.15.72V122h-3.16c.05-.2.1-.43.15-.72a8,8,0,0,0,.12-1c0-.42.07-.91.08-1.49s0-1.26,0-2V105.05a8.646,8.646,0,0,0-.08-1.5,8.025,8.025,0,0,0-.12-1,2.515,2.515,0,0,0-.15-.71v-.06h3.16v.06a4.311,4.311,0,0,0-.15.71c-.05.28-.09.63-.13,1s-.06.92-.08,1.5,0,1.25,0,2v3.5a13.6,13.6,0,0,1,1.21-1,12.266,12.266,0,0,1,1.38-.87,8.274,8.274,0,0,1,1.45-.61,4.639,4.639,0,0,1,1.45-.23,3.922,3.922,0,0,1,1.8.37,3.372,3.372,0,0,1,1.22,1,3.577,3.577,0,0,1,.68,1.38,5.491,5.491,0,0,1,.22,1.56v6.64a8.355,8.355,0,0,0,.08,1.49c.08.42.08.77.12,1s.1.52.15.72h-3.15a5.84,5.84,0,0,1,.15-.72c.056-.331.1-.665.12-1,0-.42.06-.91.08-1.49s0-1.26,0-2Zm-15.2,8.4a2.311,2.311,0,0,0,.81-.15,3,3,0,0,0,.77-.41,5.024,5.024,0,0,0,.69-.63,7.387,7.387,0,0,0,.66-.71l.13.07-.89,2.2-.41.21a3.294,3.294,0,0,1-.57.2,3.726,3.726,0,0,1-.78.18,5.56,5.56,0,0,1-1.07.08,3.917,3.917,0,0,1-2.85-1,4.178,4.178,0,0,1-1-3.1v-9.12l-2.29.08V108h2.28c0-.65,0-1.22-.05-1.71s-.05-.93-.08-1.3-.07-.69-.11-.94a5.29,5.29,0,0,0-.14-.64v-.06h3.17v.06a3.521,3.521,0,0,0-.15.64,8.071,8.071,0,0,0-.12.93c0,.36-.06.8-.09,1.3s0,1.06,0,1.72h3.19l1.15-.07.63-.07-.25,1.4-1.46-.05h-3.26v9.4a4.351,4.351,0,0,0,.18,1.38,2.364,2.364,0,0,0,.48.82,1.528,1.528,0,0,0,.67.41A2.55,2.55,0,0,0,313.14,121.19Zm-11.91-17.33a1.475,1.475,0,0,1,.11-.56,1.607,1.607,0,0,1,.31-.47,1.331,1.331,0,0,1,.46-.31,1.361,1.361,0,0,1,1.16,0,1.331,1.331,0,0,1,.46.31,1.492,1.492,0,0,1,.44,1,1.419,1.419,0,0,1-.42,1,1.461,1.461,0,0,1-1.06.42,1.406,1.406,0,0,1-.58-.11,1.51,1.51,0,0,1-.46-.31,2.041,2.041,0,0,1-.31-.46A1.68,1.68,0,0,1,301.23,103.86Zm.29,9.49v-2c0-.55-.05-1.08-.09-1.5a6.724,6.724,0,0,0-.12-1,4.65,4.65,0,0,0-.15-.72h3.16a4.65,4.65,0,0,0-.15.72c-.056.331-.1.665-.12,1q-.06.63-.09,1.5v7.3c0,.54.05,1.07.09,1.49.024.335.064.669.12,1a4.65,4.65,0,0,0,.15.72V122h-3.16a4.65,4.65,0,0,0,.15-.72,6.724,6.724,0,0,0,.12-1c0-.42.07-.91.09-1.49s0-1.26,0-2Zm-11.88-4.09,3.65,9.19,3.05-7.62.21-.55a5.221,5.221,0,0,0,.22-.63c.07-.21.12-.42.17-.61a2.872,2.872,0,0,0,.07-.53,1.083,1.083,0,0,0,0-.29.637.637,0,0,0-.06-.17h2.46a5.582,5.582,0,0,0-.6.87,17.136,17.136,0,0,0-.82,1.72l-4.85,11.55h-.78l-3.53-8.56-3.52,8.56h-.78l-4.49-10.88a12.194,12.194,0,0,0-.53-1.15c-.18-.37-.36-.71-.53-1s-.31-.53-.44-.72l-.26-.39h3.63a1.839,1.839,0,0,0,0,.21,2.085,2.085,0,0,0,0,.25,4.255,4.255,0,0,0,.12.94,12.138,12.138,0,0,0,.44,1.27l3,7.73,3.68-9.19Zm-28.5,4.65h2.74c.92,0,1.75,0,2.5-.06a9.3,9.3,0,0,0-.46-2.13,5.449,5.449,0,0,0-.88-1.6,3.61,3.61,0,0,0-2.86-1.37,3,3,0,0,0-1.46.36,3.4,3.4,0,0,0-1.15,1,5.151,5.151,0,0,0-.79,1.61,8.564,8.564,0,0,0-.36,2.16h1.3Zm1.82,8.34a8.253,8.253,0,0,1-2.84-.48,6.462,6.462,0,0,1-3.87-3.68,8.239,8.239,0,0,1-.56-3.12,7.569,7.569,0,0,1,.52-2.85,7.108,7.108,0,0,1,1.43-2.3,6.75,6.75,0,0,1,2.14-1.52,6.515,6.515,0,0,1,2.65-.55,6.786,6.786,0,0,1,2.61.5,5.716,5.716,0,0,1,2.08,1.4,6.388,6.388,0,0,1,1.39,2.29,8.909,8.909,0,0,1,.56,3.09h-6.3l-2.36-.03h-2a10.936,10.936,0,0,0,.44,2.57,6.643,6.643,0,0,0,1,2,4.491,4.491,0,0,0,1.54,1.24,4.755,4.755,0,0,0,2.07.44,5.987,5.987,0,0,0,1.49-.18,5.435,5.435,0,0,0,1.28-.52,5,5,0,0,0,1-.76,5.414,5.414,0,0,0,.77-1l.16.09-1,2.43a8.811,8.811,0,0,1-1.75.69,10.247,10.247,0,0,1-2.45.25Zm-12.63-9.46a4.063,4.063,0,0,0-.72-2.66,2.449,2.449,0,0,0-1.95-.84,2.9,2.9,0,0,0-1,.19,6.37,6.37,0,0,0-1.12.49,10.124,10.124,0,0,0-1.15.71,11.414,11.414,0,0,0-1.08.87v7.1c0,.58.05,1.07.08,1.49a7.51,7.51,0,0,0,.13,1,4.65,4.65,0,0,0,.15.72V122h-3.16a5.84,5.84,0,0,1,.15-.72c.056-.331.1-.665.12-1,0-.42.06-.91.08-1.49s0-1.26,0-2v-5.3a8.646,8.646,0,0,0-.08-1.5c-.024-.335-.064-.669-.12-1-.05-.29-.1-.52-.15-.72h3.16a4.13,4.13,0,0,0-.18.88c0,.35-.08.8-.13,1.37.38-.31.78-.62,1.21-.93a10.488,10.488,0,0,1,1.35-.82,7.458,7.458,0,0,1,1.49-.77,4.54,4.54,0,0,1,1.43-.23,3.922,3.922,0,0,1,1.8.37,3.372,3.372,0,0,1,1.22,1,3.731,3.731,0,0,1,.68,1.38,5.491,5.491,0,0,1,.22,1.56v6.64a8.355,8.355,0,0,0,.08,1.49c.08.42.08.77.12,1s.1.52.15.72V122h-3.16a4.65,4.65,0,0,0,.15-.72,7.816,7.816,0,0,0,.13-1c0-.42.06-.91.08-1.49s0-1.26,0-2Zm-16.37-8.93a1.475,1.475,0,0,1,.11-.56,1.618,1.618,0,0,1,.32-.47,1.4,1.4,0,0,1,.45-.31,1.445,1.445,0,0,1,.59-.13,1.339,1.339,0,0,1,.57.13,1.38,1.38,0,0,1,.47.31,1.277,1.277,0,0,1,.31.47,1.306,1.306,0,0,1,.12.56,1.44,1.44,0,0,1-1.409,1.47h-.061a1.439,1.439,0,0,1-.59-.11,1.566,1.566,0,0,1-.45-.31,2.094,2.094,0,0,1-.32-.46,1.673,1.673,0,0,1-.11-.59Zm.29,9.49v-2a8.646,8.646,0,0,0-.08-1.5c-.024-.335-.064-.669-.12-1a2.675,2.675,0,0,0-.15-.72h3.15a5.84,5.84,0,0,1-.15.72c-.05.29-.08.63-.12,1s-.06.92-.08,1.5,0,1.25,0,2v5.3a8.355,8.355,0,0,0,.08,1.49c.08.42.08.77.12,1s.1.52.15.72V122H233.9c.05-.2.1-.43.15-.72.056-.331.1-.665.12-1,0-.42.06-.91.08-1.49s0-1.26,0-2Zm-6.59-.56a4.063,4.063,0,0,0-.72-2.66,2.44,2.44,0,0,0-1.94-.84,3.165,3.165,0,0,0-1,.19,7.252,7.252,0,0,0-1.13.49,9.259,9.259,0,0,0-1.15.74,10.135,10.135,0,0,0-1.07.87v7.07c0,.58.05,1.07.08,1.49a7.51,7.51,0,0,0,.13,1,4.65,4.65,0,0,0,.15.72V122h-3.16c.05-.2.1-.43.15-.72a8,8,0,0,0,.12-1c0-.42.07-.91.08-1.49s0-1.26,0-2V105.05a8.646,8.646,0,0,0-.08-1.5,8.025,8.025,0,0,0-.12-1,2.515,2.515,0,0,0-.15-.71v-.06h3.16v.06a4.311,4.311,0,0,0-.15.71c-.05.28-.09.63-.13,1s-.06.92-.08,1.5,0,1.25,0,2v3.5a13.6,13.6,0,0,1,1.21-1,12.266,12.266,0,0,1,1.38-.87,8.274,8.274,0,0,1,1.45-.61,4.639,4.639,0,0,1,1.45-.23,3.922,3.922,0,0,1,1.8.37,3.372,3.372,0,0,1,1.22,1,3.577,3.577,0,0,1,.68,1.38,5.491,5.491,0,0,1,.22,1.56v6.64a8.355,8.355,0,0,0,.08,1.49c.08.42.08.77.12,1s.1.52.15.72h-3.15a5.84,5.84,0,0,1,.15-.72c.056-.331.1-.665.12-1,0-.42.06-.91.08-1.49s0-1.26,0-2Zm-14.12-7.28h-.3a3.434,3.434,0,0,0-.36-.71,2.847,2.847,0,0,0-.63-.74,3.334,3.334,0,0,0-.94-.59,3.4,3.4,0,0,0-1.3-.23,3.162,3.162,0,0,0-1.19.21,2.4,2.4,0,0,0-.87.57,2.5,2.5,0,0,0-.52.88,3.306,3.306,0,0,0-.18,1.12,3.527,3.527,0,0,0,.55,1.88,11.479,11.479,0,0,0,1.39,1.77c.56.58,1.16,1.16,1.81,1.75a23.778,23.778,0,0,1,1.8,1.82,9.811,9.811,0,0,1,1.38,2,4.459,4.459,0,0,1,.56,2.21,5.354,5.354,0,0,1-.31,1.79,4.41,4.41,0,0,1-1,1.6,4.727,4.727,0,0,1-1.65,1.17,6.06,6.06,0,0,1-2.41.43,7.243,7.243,0,0,1-1.49-.15,9.857,9.857,0,0,1-1.3-.34,9.749,9.749,0,0,1-1.06-.46c-.31-.17-.57-.32-.77-.45l.32-3h.34a4.336,4.336,0,0,0,.49,1.23,4.425,4.425,0,0,0,.84,1,4.275,4.275,0,0,0,1.14.71,3.8,3.8,0,0,0,1.41.26,3.715,3.715,0,0,0,1.25-.2,3.129,3.129,0,0,0,.95-.59,2.442,2.442,0,0,0,.6-.9,2.858,2.858,0,0,0,.22-1.14,4,4,0,0,0-.31-1.59,6.059,6.059,0,0,0-.84-1.39,9.7,9.7,0,0,0-1.16-1.27l-1.32-1.23c-.46-.42-.91-.85-1.34-1.29a10.938,10.938,0,0,1-1.17-1.39,8.082,8.082,0,0,1-.82-1.6,5.455,5.455,0,0,1-.31-1.89,4.507,4.507,0,0,1,.41-1.94,4.728,4.728,0,0,1,1.11-1.49,5.138,5.138,0,0,1,3.37-1.27,7.009,7.009,0,0,1,1.26.11,8.6,8.6,0,0,1,1.83.56l.56.25Z" transform="translate(0 -8.47)" style="fill:#253646"/><rect x="366.41" y="107.53" width="24" height="1" style="fill:#253646"/><rect x="169.41" y="107.53" width="24" height="1" style="fill:#253646"/></svg>
