<svg id="a818aebd-620e-42cd-9c7e-9d79ff9e767c" data-name="Layer 1" xmlns="http://www.w3.org/2000/svg" viewBox="0 0 88 87.86"><title>Narola-R</title><path d="M99.366,74.686l4.15,10L93.565,88.8Zm-9.53-23.06-4.11-9.95-10,4.15Zm9.53,17.8-5.84-14.12,10,4.08Zm-52.53.07,5.81-14.14-10,4.11Zm9.53,23.06,4.12,10,10-4.15Zm33.53,0-14.13,5.79,10,4.12Zm-37.21-3.63L46.846,74.8l-4.12,10.05Zm3.63-37.2,14.13-5.84-10-4.13ZM40.1,102.2V86.966l-7.7,3.07A44.215,44.215,0,0,0,40.1,102.2Zm13.67-10.71,4.67,11.3H42.1V86.7Zm6.579,13.83-3.51,8.58a43.845,43.845,0,0,0,14.21,3Zm-1.94-.53-3.439,8.33a44.005,44.005,0,0,1-12.4-8.33ZM45.766,72.126,41.055,83.6,29.716,71.8,41.1,60.846Zm-14.1,16a43.871,43.871,0,0,1-2.7-14.23l10.66,11.14Zm8-28.76-7.449-3.19a43.644,43.644,0,0,0-3.17,13.4Zm74-3a43.837,43.837,0,0,1,3.15,14l-10.849-10.85ZM40.1,43.686v13.73l-7-3A43.952,43.952,0,0,1,40.1,43.686Zm3.68-3.65a43.949,43.949,0,0,1,11.65-7.44l3.13,7Zm14.51,1.59-16.19.41v15.5l11.62-4.81Zm32.19-9-2.7,6.54,13.73.37a44.145,44.145,0,0,0-11.03-6.96Zm15.33,24.83,7.16-2.9a44.268,44.268,0,0,0-7.12-10.87Zm-2,0L92.446,52.8l-4.79-11.58,16.1.43h0Zm1.16,25.58-4.54-11,4.43-10.78L116,72.406Zm1.12,1.69,8.21,3.31a43.673,43.673,0,0,0,2.67-13.7Zm7.46,5.14a44.028,44.028,0,0,1-7.83,12.41l-.41-15.71Zm-25.761,13,16,.89-.44-16.79L92.5,91.436Zm3.1,10.26a43.948,43.948,0,0,0,11.45-7.45l-14.59-.81Zm-1.84.77a43.84,43.84,0,0,1-14.15,3l11.07-11.08Zm-4.291-9.68-11.789,11.82-11-12,11.22-4.63ZM57.286,31.826a43.385,43.385,0,0,1,12.68-2.79l-9.6,9.59Zm28.73,6.33,2.6-6.33a43.61,43.61,0,0,0-12.92-2.79Zm-13.29-9.12-11,11,11.35,4.66,11.84-4.89Z" transform="translate(-28.966 -29.036)" style="fill:#253646;fill-rule:evenodd"/></svg>
