<?xml version="1.0" encoding="utf-8"?>
<!-- Generator: Adobe Illustrator 23.0.5, SVG Export Plug-In . SVG Version: 6.00 Build 0)  -->
<svg version="1.1" id="Layer_1" xmlns="http://www.w3.org/2000/svg" xmlns:xlink="http://www.w3.org/1999/xlink" x="0px" y="0px"
	 viewBox="0 0 554.7 1024" style="enable-background:new 0 0 554.7 1024;" xml:space="preserve">
<title></title>
<g id="icomoon-ignore">
</g>
<path d="M280.7,1008c-2.4,0-4.7-0.8-6.3-2.4C191.6,933.8,52.6,774,50.3,512.6C51.5,231.1,222.2,63.9,274.4,19.2
	c3.9-3.1,9.4-3.1,13,0.4c70.3,66.7,119.7,131.1,155.5,202.9c42,84.8,64.4,179.4,68.3,289.3v0.4c-3.9,193.1-79.3,359.2-224.2,492.6
	C285.4,1006.8,283,1008,280.7,1008L280.7,1008z M280.3,40C223.4,90.7,70.7,250.8,69.5,512.6c2.3,246.9,129.9,400,210.8,472.6
	C416.5,856.4,487.6,697.5,491.5,513C484.8,317.5,421.3,175.4,280.3,40L280.3,40z M75,658.6c-2.8,0-5.9-1.2-7.8-3.9
	c-3.1-4.3-2.3-10.6,1.6-13.8l45.2-34.9c4.3-3.1,10.6-2.3,13.7,1.6c3.1,3.9,2.3,10.6-1.6,13.7l-45.2,35.3
	C79.3,657.8,77,658.6,75,658.6L75,658.6z M440.9,421.5c-3.2,0-5.9-1.2-7.8-3.9c-3.2-4.3-2.4-10.6,2-13.8l44.7-34.5
	c4.3-3.1,10.6-2.3,13.7,2s2.4,10.6-2,13.7l-44.7,34.5C445.2,420.7,442.9,421.5,440.9,421.5z M486,658.6c-2,0-4.3-0.8-5.9-2
	l-45.5-35.3c-4.3-3.1-5.1-9.4-1.6-13.7c3.1-4.3,9.4-5.1,13.8-1.6l45.5,35.3c4.3,3.2,5.1,9.4,1.6,13.8
	C491.9,657.5,488.7,658.7,486,658.6L486,658.6z M120.6,421.2c-2,0-4.3-0.8-5.9-2l-45.5-34.9c-4.3-3.2-5.1-9.4-2-13.7s9.4-5.1,13.7-2
	l45.5,34.9c4.3,3.1,5.1,9.4,2,13.7C126.4,419.6,123.3,421.2,120.6,421.2L120.6,421.2z M280.7,1007.6c-4.3,0-7.8-2.8-9.4-6.7
	l-45.2-130l-114.2-84c-2.8-2-3.9-4.7-3.9-8.3l2.4-162.5l-58.9-99.3c-2-3.2-2-7.1,0-10.2l59.3-98.5L108,245.6c0-3.1,1.6-6.3,3.9-8.3
	l114.2-83.2l45.2-130.7c1.2-3.9,5.1-6.7,9.4-6.7l0,0c4.3,0,7.8,2.8,9.4,6.7l45.2,130.7l114.6,84.4c2.8,2,3.9,4.7,3.9,8.3l-3.1,162.1
	l59.3,98.5c2,3.1,2,7.1,0,10.2L450.7,617l2,162.1c0,3.1-1.6,6.3-3.9,7.8L335,871.3l-44.8,130.3
	C288.6,1005.2,285.1,1007.5,280.7,1007.6L280.7,1007.6L280.7,1007.6z M239.5,856.5c2,1.2,3.5,2.8,4.3,5.1l36.9,106l36.5-106.4
	c0.8-2.3,2.3-3.9,3.9-5.1l111.5-82.8l-2-159.8c0-2.3,0.8-4.3,2-6.3l56.9-95.4L433,418c-1.6-2-2.8-4.3-2.8-7.1l3.1-160.5l-111.9-82.4
	c-1.2-0.8-2.3-1.6-3.1-2.8s-1.2-2-1.6-3.1l-36.5-106l-36.5,105.6c-0.4,2.4-2,4.3-3.9,5.9L127.2,250l2.8,160.2c0,2.4-0.8,4.3-2,6.3
	l-56.9,95L128,608c0.4,0.8,0.8,1.2,1.2,2c1.2,2.3,1.6,5.1,0.8,7.8l-2.3,157L239.5,856.5L239.5,856.5z M234,874.5c-0.8,0-1.2,0-2,0
	c-3.6-0.8-6.7-3.5-7.5-7.1l-51.4-191.6v-0.4l-34.5-159.4l-27.5-101.7c-0.8-3.6,0-7.1,2.8-9.8l61.2-58.9l143.6-191.2
	c2.4-3.1,5.9-4.3,9.8-3.9c3.5,0.8,6.7,3.6,7.5,7.1l51.8,191.9v0.4l34.9,158.6l27.1,101.7c0.8,3.5,0,7.1-2.8,9.4l-61.6,60.4
	L241.8,870.6C239.8,872.9,237.1,874.5,234,874.5L234,874.5z M192,670.4l46.3,171.9l131.9-175.1c0.4-0.4,0.8-0.8,1.2-1.2l58.1-56.2
	L404,513.4V513l-34.9-158.6l-46.7-172.3L190.1,358.3c-0.4,0.4-0.8,0.8-1.2,1.2l-57.7,54.9l25.9,96.6v0.4L192,670.4L192,670.4z
	 M326.6,874.5c-3.1,0-5.9-1.6-7.8-3.9L175.9,680.2l-62-58.9c-2.8-2.3-3.5-6.3-2.8-9.4l27.1-102.8l35.3-159v-0.4l51-191.9
	c0.8-3.6,3.9-6.3,7.5-7.1s7.5,0.8,9.8,3.9l144.1,191.6l61.6,58.9c2.7,2.3,3.5,6.3,2.7,9.8l-27.1,99.3l-34.9,162.5v0.4l-52.2,190
	c-0.8,3.5-3.9,6.3-7.5,7.1C328.3,874.6,327.5,874.6,326.6,874.5L326.6,874.5z M131.5,611.2l58.1,55.4c0.4,0.4,0.8,0.8,1.2,1.2
	l131.5,175.1l46.3-171.2l34.9-162.5v-0.4l25.5-94.2L371,359.2c-0.4-0.4-0.8-0.8-1.2-1.2L237.2,181.8l-45.5,172.3l-35.3,159
	L131.5,611.2L131.5,611.2z"/>
</svg>
