<?xml version="1.0" encoding="utf-8"?>
<!-- Generator: Adobe Illustrator 23.0.5, SVG Export Plug-In . SVG Version: 6.00 Build 0)  -->
<svg version="1.1" id="Layer_1" xmlns="http://www.w3.org/2000/svg" xmlns:xlink="http://www.w3.org/1999/xlink" x="0px" y="0px"
	 viewBox="0 0 704 1024" style="enable-background:new 0 0 704 1024;" xml:space="preserve">
<title></title>
<g id="icomoon-ignore">
</g>
<path d="M350.7,1008.1c-173.6,0-314.8-222.4-314.8-495.7c0-272.9,141.2-495,314.8-495s314.8,222.2,314.8,495.4
	C665.5,786,524.3,1008.2,350.7,1008.1L350.7,1008.1z M350.7,36.8c-162.8,0-295.3,213.3-295.3,475.5c0,262.6,132.5,476.3,295.3,476.3
	S646,775.1,646,512.7S513.5,36.8,350.7,36.8L350.7,36.8z M135.1,865.7c-2.6,0-5.1-1-6.9-2.9s-2.8-4.4-2.8-6.9l2-202.8
	c0.1-5.3,4.4-9.6,9.7-9.6c0,0,0.1,0,0.1,0c5.4,0.1,9.7,4.4,9.6,9.8l-1.9,192.9l116.2-0.4h0c5.3,0,9.7,4.4,9.7,9.7
	c0,5.4-4.3,9.8-9.7,9.8L135.1,865.7C135.1,865.6,135.1,865.6,135.1,865.7L135.1,865.7z M565.9,865.7c-0.1,0-0.2,0-0.2,0L439.6,863
	c-5.4-0.1-9.6-4.5-9.5-9.9s4.5-9.8,10-9.5l116.1,2.5l-0.4-191.2c0-5.4,4.4-9.8,9.7-9.8c0,0,0,0,0,0c5.4,0,9.7,4.4,9.7,9.7l0.4,201.2
	c0,2.6-1.1,5.1-2.9,7C570.8,864.8,568.4,865.8,565.9,865.7L565.9,865.7z M135.1,380.4c-5.4,0-9.7-4.4-9.7-9.7L125,169.2
	c0-2.6,1-5.1,2.8-6.9s4.3-2.8,6.8-2.8c0,0,0,0,0.1,0l127.2,0.8c5.4,0,9.7,4.4,9.7,9.8c0,5.3-4.4,9.7-9.7,9.7c0,0,0,0-0.1,0
	L144.4,179l0.4,191.7C144.8,376.1,140.4,380.5,135.1,380.4L135.1,380.4L135.1,380.4z M565.9,379.7L565.9,379.7
	c-5.4,0-9.7-4.4-9.7-9.8l0.4-191l-116.7,0.7c0,0,0,0-0.1,0c-5.3,0-9.7-4.3-9.7-9.7s4.3-9.8,9.7-9.8l126.5-0.8c2.5,0.1,5.1,1,6.9,2.8
	s2.9,4.3,2.8,6.9L575.6,370C575.6,375.3,571.2,379.6,565.9,379.7L565.9,379.7z M350.3,1008.1c-3.4,0-6.5-1.7-8.3-4.6L253,860.7
	c-2.8-4.6-1.5-10.6,3.1-13.4c4.6-2.8,10.6-1.4,13.4,3.1L350.3,980l81.3-131.8c2.8-4.6,8.8-6,13.4-3.2s6,8.8,3.2,13.4l-89.5,145.2
	C356.8,1006.4,353.7,1008.2,350.3,1008.1L350.3,1008.1L350.3,1008.1z M565.5,664.1c-1.8,0-3.6-0.5-5.2-1.5c-4.5-2.9-5.9-8.9-3-13.4
	l86.6-136.8l-86.6-137.2c-2.9-4.5-1.5-10.5,3-13.4s10.6-1.5,13.4,3l89.9,142.4c2,3.2,2,7.2,0,10.4l-89.9,142
	C571.8,662.6,568.7,664.2,565.5,664.1L565.5,664.1z M136.7,662.6c-3.2,0-6.3-1.5-8.1-4.4L36.7,518.9c-2.1-3.2-2.1-7.3-0.1-10.5
	l89.9-142.8c2.8-4.5,8.9-5.9,13.4-3s5.9,8.9,3,13.4L56.4,513.4l88.4,134.1c2.9,4.5,1.7,10.5-2.8,13.5
	C140.4,662,138.5,662.6,136.7,662.6L136.7,662.6z M439.4,180.1c-3.3,0-6.4-1.6-8.3-4.6L350.4,45.6l-79.7,129.4
	c-2.8,4.6-8.8,6-13.4,3.2s-6-8.8-3.2-13.4L342,22c1.8-2.9,4.9-4.6,8.3-4.6h0c3.4,0,6.5,1.7,8.3,4.6l89.1,143.2
	c2.8,4.6,1.4,10.6-3.1,13.4C443,179.6,441.2,180.1,439.4,180.1L439.4,180.1z M261.2,865.3c-1.2,0-2.3-0.2-3.5-0.6
	c-2.9-1.1-5.2-3.6-5.9-6.6L125.7,373.2c-1.1-4,0.6-8.3,4.1-10.6L434,161.8c2.6-1.7,5.9-2.1,8.8-1s5.1,3.6,5.9,6.6l126.1,484.9
	c1.1,4-0.6,8.3-4.1,10.6L266.5,863.7C264.9,864.8,263.1,865.3,261.2,865.3L261.2,865.3z M146.3,375l120.9,465l287.1-189.5
	l-120.9-465L146.3,375L146.3,375z M440.2,862.6c-1.9,0-3.7-0.5-5.4-1.6L131.3,661c-3.5-2.3-5.1-6.5-4.1-10.6l125.7-482.9
	c0.8-3,3-5.5,5.9-6.6s6.2-0.8,8.8,1l303.1,200c3.5,2.3,5.1,6.5,4.1,10.6L449.6,855.3c-0.8,3-3,5.5-5.9,6.6
	C442.5,862.4,441.3,862.6,440.2,862.6L440.2,862.6z M147.8,648.5l286.3,188.7l120.1-463l-286-188.7L147.8,648.5L147.8,648.5z
	 M68.6,708.1c-3.1,0-6.2-1.5-8.1-4.3c-3-4.4-1.8-10.5,2.7-13.5l67.7-45.5c4.4-3,10.5-1.8,13.5,2.7s1.8,10.5-2.7,13.5L74,706.5
	C72.3,707.6,70.4,708.1,68.6,708.1L68.6,708.1z M565.9,379.7c-3.2,0-6.3-1.6-8.2-4.4c-2.9-4.5-1.6-10.5,2.9-13.5l66.5-43.2
	c4.5-2.9,10.5-1.7,13.5,2.8s1.6,10.5-2.9,13.5l-66.5,43.2C569.5,379.1,567.7,379.6,565.9,379.7L565.9,379.7z M632.4,708.1
	c-1.8,0-3.6-0.5-5.3-1.6l-66.5-43.6c-4.5-2.9-5.8-9-2.8-13.5s9-5.8,13.5-2.8l66.6,43.6c4.5,2.9,5.8,9,2.8,13.5
	C638.7,706.5,635.6,708.1,632.4,708.1L632.4,708.1z M135.1,380.4c-1.9,0-3.7-0.5-5.4-1.6l-66.1-44c-4.5-3-5.7-9-2.7-13.5
	s9-5.7,13.5-2.7l66.1,44c4.5,3,5.7,9,2.7,13.5C141.3,378.9,138.2,380.4,135.1,380.4L135.1,380.4z M467,970.8c-4.4,0-8.3-2.9-9.4-7.4
	l-27.2-108.2c-1.3-5.2,1.9-10.5,7.1-11.8s10.5,1.9,11.8,7.1l27.3,108.2c1.3,5.2-1.9,10.5-7.1,11.8
	C468.6,970.7,467.8,970.8,467,970.8L467,970.8z M262.3,179.3c-4.3,0-8.2-2.9-9.4-7.2L224.5,65.8c-1.4-5.2,1.7-10.5,6.9-11.9
	s10.5,1.7,11.9,6.9L271.7,167c1.4,5.2-1.7,10.5-6.9,11.9C264,179.2,263.2,179.3,262.3,179.3L262.3,179.3z M234,970.8
	c-0.8,0-1.6-0.1-2.4-0.3c-5.2-1.3-8.4-6.7-7-11.8l27.2-105.5c1.3-5.2,6.7-8.3,11.8-7s8.4,6.7,7,11.8l-27.2,105.4
	C242.2,967.8,238.3,970.8,234,970.8z M439.4,179.7c-0.8,0-1.6-0.1-2.5-0.3c-5.2-1.3-8.3-6.7-7-11.9l27.6-106.2
	c1.3-5.2,6.7-8.3,11.9-7s8.3,6.7,7,11.9l-27.6,106.2C447.7,176.8,443.7,179.7,439.4,179.7L439.4,179.7z"/>
</svg>
