<?xml version="1.0" encoding="utf-8"?>
<!-- Generator: Adobe Illustrator 23.0.5, SVG Export Plug-In . SVG Version: 6.00 Build 0)  -->
<svg version="1.1" id="Layer_1" xmlns="http://www.w3.org/2000/svg" xmlns:xlink="http://www.w3.org/1999/xlink" x="0px" y="0px"
	 viewBox="0 0 687.3 1024" style="enable-background:new 0 0 687.3 1024;" xml:space="preserve">
<title></title>
<g id="icomoon-ignore">
</g>
<path d="M350.8,1008.9c-173.1,0-313.9-143.8-313.9-320.6c0-253.3,103.6-479.1,307.9-670.9c3.8-3.6,9.9-3.6,13.7,0.1
	c210,204.7,310.2,424.2,306.2,671C664.7,865.1,523.9,1008.9,350.8,1008.9z M351.4,38.3C155.8,224.8,56.6,443.5,56.6,688.3
	c0,165.9,132,300.9,294.2,300.9s294.1-135,294.1-300.9C648.8,449.8,552.7,237.1,351.4,38.3L351.4,38.3z M350.4,888.1
	c-1.3,0-2.6-0.3-3.8-0.7l-130.7-54.1c-2.4-1-4.4-2.9-5.4-5.4L158,699.1c-0.7-1.8-0.9-3.8-0.5-5.8l47-222.3c0.3-1.4,0.9-2.8,1.8-3.9
	l136.6-181.6c1.9-2.5,4.8-3.9,7.9-3.9l0,0c3.1,0,6,1.5,7.9,4l135.4,181.6c0.8,1.2,1.4,2.4,1.7,3.8l47.8,222.3c0.4,2,0.2,4-0.5,5.8
	l-52.5,128.7c-1,2.5-2.9,4.4-5.4,5.4l-131.1,54.1C352.9,887.8,351.7,888.1,350.4,888.1z M227.3,816.6l123.1,51l123.5-51l49.8-122.1
	L477,477.3L350.7,307.9L223.4,477.3l-45.9,217.2L227.3,816.6L227.3,816.6z M350.8,301c-3.1,0-6-1.4-7.8-3.9l-63.2-82.5
	c-2-2.6-2.6-6.1-1.5-9.2l63.2-184c1.4-4,5.2-6.7,9.3-6.7l0,0c4.2,0,8,2.7,9.3,6.7l62.8,184c1.1,3.1,0.5,6.6-1.5,9.2l-62.8,82.5
	C356.7,299.5,353.8,301,350.8,301L350.8,301L350.8,301z M298.7,206.8l52.1,68l51.8-68L350.8,55L298.7,206.8L298.7,206.8z
	 M350.8,1009.3c-2.4,0-4.8-0.9-6.7-2.6L252.5,923c-2.5-2.3-3.6-5.7-3.1-9s2.8-6.1,6-7.4l91.6-37.5c2.4-1,5.1-1,7.5,0l91.2,37.5
	c3.1,1.3,5.4,4.1,6,7.4s-0.5,6.7-3,9l-91.2,83.7C355.6,1008.4,353.2,1009.3,350.8,1009.3L350.8,1009.3z M277.3,919l73.4,67.1
	l73.1-67.1l-73.1-30L277.3,919L277.3,919z M442,925.6c-3.2,0-6.2-1.6-8.1-4.2c-2-2.8-2.3-6.4-1-9.6l39.5-91.6c1-2.4,2.9-4.2,5.3-5.2
	l90.8-37.5c3.1-1.3,6.7-0.9,9.5,1.1s4.3,5.2,4.1,8.6l-7.1,122c-0.3,5-4.3,9-9.3,9.3l-123.2,7.1C442.4,925.6,442.2,925.6,442,925.6
	L442,925.6z M489,831.7L457.4,905l98.5-5.7l5.7-97.5L489,831.7L489,831.7z M572.3,565.1c-2.5,0-4.9-1-6.8-2.7l-86.1-82.1
	c-1.3-1.2-2.2-2.8-2.7-4.5l-72.6-265c-1.1-4.1,0.5-8.4,3.9-10.8s8.1-2.3,11.5,0.2l162.7,120c2.6,1.9,4.1,4.9,4,8.1l-3.9,227
	c-0.1,3.9-2.4,7.4-6,8.9C574.9,564.9,573.6,565.1,572.3,565.1L572.3,565.1z M495,467.8l67.8,64.7l3.5-199.4L430.6,233L495,467.8
	L495,467.8z M128.9,564.7c-1.3,0-2.6-0.3-3.8-0.8c-3.6-1.5-6-5-6.1-9l-3.6-226.6c-0.1-3.2,1.4-6.2,4-8.1l162.3-119.6
	c3.4-2.5,8-2.6,11.5-0.2s5.1,6.7,3.9,10.8l-73.4,264.5c-0.5,1.7-1.4,3.3-2.7,4.5l-85.3,81.7C133.8,563.7,131.3,564.7,128.9,564.7
	L128.9,564.7z M135.3,333.1l3.1,198.9l67-64.2l65.1-234.4L135.3,333.1L135.3,333.1z M572.3,796.5c-0.5,0-1.1-0.1-1.6-0.1
	c-3.4-0.6-6.2-2.8-7.5-5.9l-38.3-91.2c-0.8-2-1-4.3-0.4-6.4l38.3-140.6c1-3.8,4.3-6.7,8.2-7.2s7.8,1.4,9.8,4.8L663,690
	c2.2,3.7,1.7,8.4-1.2,11.6l-82.1,91.6C577.8,795.3,575.1,796.4,572.3,796.5L572.3,796.5z M544.4,694.7l30.9,73.7l66.9-74.6
	l-66.6-113.7L544.4,694.7z M128.9,796.5c-2.8,0-5.5-1.2-7.3-3.3l-82.1-91.6c-2.9-3.2-3.3-7.9-1.2-11.6l82.1-140.2
	c2-3.4,5.9-5.3,9.8-4.8s7.2,3.4,8.2,7.2l38.3,140.6c0.6,2.1,0.4,4.4-0.4,6.4L138,790.5c-1.3,3.1-4.1,5.3-7.5,5.9
	C130,796.4,129.5,796.5,128.9,796.5L128.9,796.5z M58.9,693.8l66.9,74.6l30.9-73.7l-31.2-114.6L58.9,693.8z M259.2,925.6
	c-0.2,0-0.4,0-0.6,0l-123.2-7.1c-5-0.3-9-4.3-9.3-9.3l-7.1-122c-0.2-3.4,1.4-6.7,4.1-8.6s6.3-2.4,9.5-1.1l90.8,37.5
	c2.4,1,4.3,2.8,5.3,5.2l39.5,91.6c1.4,3.1,1,6.8-1,9.6C265.4,924,262.4,925.6,259.2,925.6L259.2,925.6z M145.3,899.3l98.5,5.7
	l-31.6-73.2l-72.6-30L145.3,899.3L145.3,899.3z M287.6,218.4c-2,0-3.9-0.6-5.7-1.8l-63.2-44.2c-4.4-3.1-5.5-9.3-2.4-13.8
	s9.3-5.5,13.8-2.4l63.2,44.2c4.4,3.1,5.6,9.3,2.4,13.8C293.8,217,290.7,218.4,287.6,218.4L287.6,218.4z M413.6,218.4
	c-3.2,0-6.2-1.5-8.2-4.3c-3.1-4.5-1.9-10.7,2.6-13.7l63.2-43c4.5-3.1,10.6-1.9,13.7,2.6s1.9,10.7-2.6,13.7l-63.2,43
	C417.4,217.9,415.5,218.4,413.6,218.4L413.6,218.4z M128.9,564.7c-2.1,0-4.3-0.7-6.1-2.1l-63.2-49.3c-4.3-3.4-5.1-9.6-1.7-13.9
	s9.6-5.1,13.9-1.7L135,547c4.3,3.4,5.1,9.5,1.7,13.9C134.7,563.4,131.8,564.7,128.9,564.7L128.9,564.7z M71.2,820.6
	c-3.9,0-7.5-2.3-9.1-6c-2.1-5,0.3-10.8,5.3-12.9l57.6-24.1c5-2.1,10.8,0.3,12.9,5.3s-0.3,10.8-5.3,12.9l-57.6,24
	C73.8,820.4,72.5,820.6,71.2,820.6L71.2,820.6z M234.7,985.6c-1.3,0-2.5-0.2-3.8-0.7c-5-2.1-7.4-7.8-5.3-12.9l24.9-60
	c2.1-5,7.8-7.4,12.9-5.3s7.4,7.8,5.3,12.9l-24.9,60C242.3,983.3,238.6,985.6,234.7,985.6L234.7,985.6z M466.9,985.6
	c-3.8,0-7.6-2.3-9.1-6.1l-24.9-60c-2.1-5.1,0.3-10.8,5.3-12.9s10.8,0.3,12.9,5.3l24.9,60c2.1,5-0.3,10.8-5.4,12.9
	C469.5,985.4,468.2,985.6,466.9,985.6L466.9,985.6z M630.3,820.2c-1.2,0-2.5-0.3-3.8-0.7l-58-24.1c-5.1-2.1-7.4-7.9-5.3-12.9
	s7.8-7.4,12.9-5.3l58,24.1c5,2.1,7.4,7.9,5.3,12.9C637.9,817.9,634.2,820.2,630.3,820.2z M572.7,565.1c-3,0-5.9-1.3-7.8-3.9
	c-3.3-4.3-2.5-10.5,1.8-13.9L631,498c4.4-3.3,10.5-2.5,13.9,1.8s2.5,10.5-1.8,13.9l-64.4,49.4C576.9,564.4,574.8,565.1,572.7,565.1
	L572.7,565.1z"/>
</svg>
