<!-- Generated by IcoMoon.io -->
<svg version="1.1" xmlns="http://www.w3.org/2000/svg" width="1024" height="1024" viewBox="0 0 1024 1024">
<title></title>
<g id="icomoon-ignore">
</g>
<path d="M741.024 1007.552h-452.672c-2.784 0-5.184-1.184-7.136-3.168l-122.304-125.088c-1.984-1.984-2.784-4.384-2.784-6.752v-717.088c0-2.368 0.8-5.184 2.784-6.752l122.304-128.256c1.984-1.984 4.352-3.168 7.136-3.168h452.672c2.784 0 5.184 1.184 7.136 3.168l124.288 128.256c1.984 1.984 2.784 4.352 2.784 6.752v716.704c0 2.784-1.184 5.152-2.784 7.136l-124.288 125.472c-1.984 1.568-4.384 2.784-7.136 2.784zM292.736 987.712h444.32l118.304-119.52v-708.736l-118.304-122.304h-444.32l-116.736 122.304v708.736l116.736 119.52zM712.032 950.784h-399.040c-2.784 0-5.152-1.184-7.136-2.784l-92.512-92.896c-1.984-1.984-2.784-4.384-2.784-7.168v-668.256c0-2.368 1.184-5.184 2.784-6.752l92.512-95.296c1.984-1.984 4.352-3.168 7.136-3.168h398.624c2.4 0 5.184 1.184 6.752 2.784l99.264 95.296c1.984 1.984 3.168 4.352 3.168 7.136v668.256c0 2.784-1.184 5.568-3.168 7.168l-99.264 92.928c-1.568 1.984-3.968 2.784-6.336 2.784zM316.96 930.912h390.688l93.312-87.328v-659.904l-93.312-89.728h-390.304l-86.944 89.728v660.32l86.56 86.944zM312.992 950.4c-1.984 0-3.968-0.384-5.568-1.568-2.4-1.568-3.968-4.384-4.352-7.168l-40.896-428.032-51.616-332.736c-0.416-2.784 0.416-5.184 1.984-7.552s3.968-3.584 6.752-3.968l293.408-38.112 196.544-56.8c2.784-0.8 5.952-0.384 8.352 1.184s3.968 4.352 4.384 7.168l45.664 428.032 53.184 335.136c0.416 2.784-0.384 5.568-1.984 7.52s-3.968 3.552-6.752 3.968l-295.808 35.744-200.928 56.768c-0.768 0.384-1.568 0.384-2.368 0.384zM231.968 188.032l50.016 322.816v0.384l39.712 416.512 190.208-53.6c0.384 0 1.184-0.416 1.6-0.416l286.272-34.528-52-325.184v-0.416l-44.48-416.512-185.824 53.6c-0.384 0-0.8 0.416-1.568 0.416l-283.904 36.928zM712.032 950.784c-0.8 0-1.984 0-2.784-0.384l-194.56-57.184-295.424-35.744c-2.784-0.384-5.152-1.568-6.752-3.968-1.6-1.984-2.368-4.768-1.984-7.552l53.216-335.136 39.328-427.648c0.384-2.784 1.984-5.536 4.352-7.136s5.568-1.984 8.352-1.184l202.88 56.384 293.824 38.112c2.784 0.384 5.184 1.6 6.752 3.968 1.568 1.984 2.4 4.768 1.984 7.552l-51.616 332.736-47.648 428.032c-0.384 2.784-1.984 5.568-4.384 7.168-1.984 1.184-3.968 1.984-5.568 1.984zM231.968 839.232l285.888 34.528c0.416 0 1.184 0 1.6 0.416l183.84 53.6 46.464-416.512v-0.416l50.048-322.816-284.288-36.928c-0.384 0-0.8 0-1.6-0.384l-191.776-53.6-38.112 416.128c0 0.384 0 0.384 0 0.8l-52 325.184zM313.376 93.92c-3.968 0-7.552-2.4-9.12-5.952l-24.608-56.384c-2.4-5.152 0-10.72 5.152-13.088 5.152-1.984 10.72 0 13.088 5.152l24.64 56.768c2.4 5.184 0 10.752-5.152 13.12-1.184 0.384-2.4 0.384-3.968 0.384zM220.448 189.632c-1.184 0-2.784-0.416-3.968-0.8l-54.4-24.224c-5.152-2.368-7.136-7.936-5.152-13.088 2.368-5.152 7.936-7.136 13.12-5.152l54.4 24.224c5.184 2.368 7.136 7.936 5.184 13.12-1.6 3.584-5.152 5.952-9.12 5.952zM712.032 94.336c-1.6 0-3.168-0.416-4.384-1.184-4.768-2.4-6.752-8.32-4.384-13.504l28.992-56.8c2.4-4.768 8.352-6.752 13.504-4.352 4.768 2.368 6.752 8.32 4.384 13.504l-28.992 56.8c-1.984 3.552-5.568 5.536-9.12 5.536zM810.88 189.216c-3.968 0-7.552-2.368-9.12-5.952-1.984-5.152 0-10.72 5.152-13.12l54.816-23.424c5.152-1.984 10.72 0 13.12 5.152 1.984 5.184 0 10.72-5.184 13.12l-55.168 23.424c-1.184 0.416-2.368 0.8-3.584 0.8zM865.28 882.112c-1.184 0-2.784-0.384-3.968-0.8l-54.4-24.608c-5.184-2.368-7.168-7.936-5.184-13.12 2.4-5.184 7.936-7.168 13.12-5.184l54.4 24.64c5.184 2.368 7.168 7.936 5.184 13.12-1.6 3.552-5.184 5.952-9.12 5.952zM741.024 1007.552c-3.584 0-7.168-1.984-8.736-5.568l-28.992-56.768c-2.4-4.768-0.384-10.72 4.384-13.504 4.768-2.4 10.72-0.416 13.504 4.352l28.992 56.8c2.4 4.768 0.416 10.72-4.384 13.472-1.6 0.8-3.168 1.184-4.768 1.184zM288.768 1007.168c-1.184 0-2.784-0.416-3.968-0.8-5.152-1.984-7.552-7.936-5.152-13.088l24.224-56.8c1.984-5.152 7.936-7.52 13.088-5.152 5.184 1.984 7.552 7.936 5.184 13.12l-24.224 56.8c-1.6 3.584-5.184 5.952-9.152 5.952zM166.464 882.112c-3.584 0-7.136-1.984-9.12-5.952-2.368-5.152 0-10.72 4.768-13.12l54.016-25.024c5.152-2.4 10.72 0 13.088 4.768 2.368 5.152 0 10.72-4.768 13.12l-54.016 25.024c-1.184 1.184-2.4 1.184-3.968 1.184z"></path>
</svg>
