<!-- Generated by IcoMoon.io -->
<svg version="1.1" xmlns="http://www.w3.org/2000/svg" width="1024" height="1024" viewBox="0 0 1024 1024">
<title></title>
<g id="icomoon-ignore">
</g>
<path d="M515.168 998.816c-130.816 0-253.824-50.976-346.368-143.52-190.976-191.008-190.976-501.76 0-692.736 92.544-92.544 215.552-143.52 346.368-143.52s253.824 50.976 346.368 143.52c190.976 190.976 190.976 501.76 0 692.736-92.544 92.544-215.552 143.52-346.368 143.52zM515.168 38.528c-125.632 0-243.744 48.96-332.608 137.792-183.424 183.392-183.424 481.824 0 665.216 88.864 88.864 206.976 137.824 332.608 137.824s243.744-48.928 332.608-137.824c183.392-183.424 183.392-481.824 0-665.216-88.864-88.864-206.976-137.792-332.608-137.792zM515.36 998.624c-2.496 0-4.992-0.928-6.88-2.848l-142.016-142.016c-3.808-3.808-3.808-9.952 0-13.76s9.952-3.808 13.76 0l135.136 135.168 135.52-135.552c3.808-3.808 9.952-3.808 13.76 0s3.808 9.952 0 13.76l-142.432 142.4c-1.888 1.92-4.384 2.848-6.848 2.848zM855.424 658.56c-2.496 0-4.992-0.96-6.88-2.848-3.808-3.808-3.808-9.952 0-13.76l132.832-132.832-135.168-135.136c-3.808-3.808-3.808-9.984 0-13.76s9.952-3.808 13.76 0l142.016 142.016c3.808 3.808 3.808 9.952 0 13.76l-139.68 139.712c-1.888 1.856-4.384 2.816-6.88 2.816zM174.88 658.56c-2.496 0-4.96-0.96-6.88-2.848l-139.68-139.68c-1.824-1.824-2.848-4.288-2.848-6.88s1.024-5.056 2.848-6.88l141.632-141.632c3.808-3.776 9.952-3.776 13.76 0s3.808 9.984 0 13.76l-134.784 134.752 132.8 132.8c3.808 3.808 3.808 9.952 0 13.76-1.888 1.888-4.384 2.848-6.88 2.848zM655.040 178.784c-2.496 0-4.96-0.928-6.88-2.848l-133.184-133.216-132.8 132.8c-3.808 3.808-9.952 3.808-13.76 0s-3.808-9.952 0-13.76l139.68-139.68c3.648-3.648 10.112-3.648 13.76 0l140.064 140.064c3.808 3.808 3.808 9.952 0 13.76-1.92 1.92-4.416 2.848-6.88 2.848zM854.272 858.176h-201.184c-5.376 0-9.728-4.352-9.728-9.76s4.352-9.728 9.728-9.728h191.456v-191.808c0-5.376 4.352-9.728 9.728-9.728s9.76 4.352 9.76 9.728v201.536c0 5.408-4.384 9.76-9.728 9.76zM373.344 858.176h-197.664c-5.376 0-9.728-4.352-9.728-9.76v-200.384c0-5.376 4.352-9.728 9.728-9.728s9.728 4.352 9.728 9.728v190.656h187.936c5.376 0 9.728 4.352 9.728 9.728s-4.352 9.728-9.728 9.728zM854.656 376.832c-5.376 0-9.728-4.352-9.728-9.728v-187.552h-191.072c-5.376 0-9.728-4.352-9.728-9.728s4.352-9.728 9.728-9.728h200.768c5.376 0 9.728 4.352 9.728 9.728v197.28c0 5.376-4.352 9.728-9.728 9.728zM175.648 376.832c-5.376 0-9.728-4.352-9.728-9.728v-197.28c0-5.376 4.352-9.728 9.728-9.728h198.048c5.376 0 9.728 4.352 9.728 9.728s-4.352 9.728-9.728 9.728h-188.32v187.552c0 5.376-4.352 9.728-9.728 9.728zM655.36 858.016c-1.248 0-2.496-0.256-3.712-0.768l-479.2-198.496c-4.96-2.048-7.328-7.744-5.248-12.704l198.496-479.2c2.048-4.96 7.744-7.328 12.704-5.28l479.2 198.496c4.96 2.048 7.296 7.744 5.248 12.704l-198.496 479.232c-1.536 3.712-5.184 6.016-8.992 6.016zM188.864 644.512l461.216 191.072 191.072-461.248-461.248-191.040-191.040 461.216zM375.296 855.072c-1.28 0-2.528-0.256-3.744-0.736-2.4-0.992-4.288-2.88-5.28-5.28l-197.664-477.408c-2.048-4.96 0.32-10.656 5.28-12.704l477.408-198.048c2.4-0.992 5.088-0.992 7.456 0s4.288 2.88 5.28 5.28l197.696 477.44c2.048 4.928-0.32 10.624-5.28 12.704l-477.408 198.048c-1.184 0.48-2.464 0.736-3.712 0.736zM190.336 373.152l190.24 459.456 459.456-190.592-190.24-459.456-459.456 190.592zM331.328 962.048c-1.248 0-2.496-0.256-3.744-0.736-4.96-2.080-7.328-7.744-5.248-12.736l43.168-104.256c2.048-4.96 7.744-7.36 12.704-5.28s7.328 7.712 5.28 12.736l-43.2 104.288c-1.568 3.744-5.184 6.016-8.992 6.016zM655.456 179.584c-1.248 0-2.528-0.224-3.744-0.736-4.96-2.048-7.328-7.744-5.28-12.704l43.2-104.288c2.048-4.96 7.712-7.328 12.704-5.28s7.328 7.744 5.248 12.704l-43.168 104.288c-1.568 3.744-5.184 6.016-8.992 6.016zM71.392 702.528c-3.808 0-7.424-2.24-8.992-6.016-2.048-4.96 0.288-10.656 5.248-12.704l104.288-43.2c4.96-2.080 10.656 0.288 12.704 5.248s-0.32 10.656-5.28 12.736l-104.288 43.2c-1.216 0.512-2.496 0.736-3.744 0.736zM853.888 378.784c-3.808 0-7.424-2.24-8.992-6.016-2.048-4.96 0.288-10.624 5.248-12.704l104.672-43.584c4.928-2.080 10.624 0.288 12.736 5.248 2.048 4.96-0.288 10.656-5.248 12.736l-104.672 43.552c-1.216 0.512-2.496 0.768-3.712 0.768zM958.528 702.528c-1.248 0-2.496-0.256-3.712-0.736l-106.24-44c-4.96-2.048-7.328-7.744-5.28-12.704s7.712-7.328 12.704-5.28l106.24 43.968c4.96 2.048 7.328 7.712 5.248 12.704-1.536 3.744-5.184 6.016-8.96 6.016zM175.648 378.016c-1.216 0-2.496-0.224-3.68-0.736l-104.288-42.816c-4.96-2.048-7.36-7.744-5.28-12.672s7.744-7.328 12.672-5.312l104.288 42.816c4.96 2.048 7.328 7.744 5.312 12.704-1.536 3.776-5.184 6.048-9.024 6.048zM698.624 962.048c-3.808 0-7.456-2.24-8.992-6.016l-43.2-104.288c-2.048-4.992 0.288-10.656 5.28-12.736s10.624 0.288 12.704 5.248l43.2 104.288c2.048 4.96-0.288 10.656-5.248 12.736-1.216 0.512-2.496 0.736-3.712 0.736zM374.912 180.352c-3.84 0-7.424-2.272-8.992-6.016l-43.584-105.056c-2.080-4.96 0.288-10.656 5.248-12.704s10.656 0.32 12.704 5.28l43.584 105.056c2.048 4.96-0.288 10.656-5.28 12.704-1.216 0.512-2.464 0.736-3.712 0.736z"></path>
</svg>
