<!-- Generated by IcoMoon.io -->
<svg version="1.1" xmlns="http://www.w3.org/2000/svg" width="1024" height="1024" viewBox="0 0 1024 1024">
<title></title>
<g id="icomoon-ignore">
</g>
<path d="M739.776 234.784c-1.952 0-4.288-0.768-6.24-2.368-4.288-3.552-4.672-9.472-1.568-13.792l156.96-197.088c3.52-4.32 9.376-4.736 13.664-1.568 4.32 3.552 4.672 9.472 1.568 13.792l-156.992 197.088c-1.568 2.368-4.672 3.936-7.424 3.936zM796.768 293.088c-2.72 0-5.856-1.184-7.808-3.552-3.52-4.352-2.72-10.656 1.568-13.792l196.416-158.816c4.32-3.552 10.56-2.752 13.664 1.568 3.52 4.32 2.72 10.656-1.568 13.792l-196.448 158.816c-1.568 1.184-3.904 1.984-5.856 1.984zM284.448 234.784c-2.72 0-5.856-1.184-7.808-3.552l-156.576-197.44c-3.52-4.32-2.752-10.272 1.568-13.792s10.144-2.752 13.664 1.568l156.96 197.088c3.52 4.352 2.72 10.24-1.568 13.792-1.952 1.568-3.904 2.336-6.24 2.336zM227.424 293.088c-1.952 0-4.288-0.8-6.24-1.984l-196.032-158.816c-4.288-3.552-5.088-9.472-1.568-13.792s9.376-5.12 13.664-1.568l196.416 158.816c4.288 3.552 5.088 9.472 1.568 13.792-1.952 2.336-4.672 3.552-7.808 3.552zM896.736 1008.448c-2.72 0-5.856-1.184-7.808-3.52l-156.96-197.088c-3.52-4.32-2.72-10.24 1.568-13.792s10.528-2.784 13.664 1.568l156.992 197.056c3.52 4.352 2.72 10.24-1.568 13.792-1.536 1.184-3.904 1.952-5.856 1.952zM993.216 911.488c-1.952 0-4.288-0.8-6.24-1.952l-196.416-158.848c-4.288-3.552-5.088-9.472-1.568-13.792s9.376-5.12 13.664-1.568l196.416 158.816c4.288 3.552 5.088 9.472 1.568 13.792-1.92 2.368-4.672 3.52-7.424 3.52zM896.352 1008.448h-768.512c-2.752 0-5.088-1.184-7.040-2.752l-96.448-97.728c-1.952-1.952-2.752-4.352-2.752-7.104v-775.616c0-2.784 1.152-5.12 2.752-7.104l96.448-97.344c1.952-1.984 4.288-2.752 7.040-2.752h768.896c2.72 0 5.088 1.184 7.040 2.752l96.064 97.344c1.952 1.984 2.72 4.32 2.72 7.104v775.648c0 2.784-1.152 5.12-2.72 7.104l-96.832 97.76c-1.568 1.536-4.288 2.72-6.624 2.72zM131.744 988.736h760.288l91.008-91.84v-767.744l-90.624-91.424h-760.704l-90.592 91.424v767.744l90.592 91.84zM821.76 914.24h-619.712c-2.72 0-5.088-1.184-7.040-2.752l-77.696-78.432c-1.952-1.984-2.752-4.352-2.752-7.104v-625.856c0-2.784 1.184-5.12 2.752-7.072l77.696-78.432c1.952-1.984 4.288-2.784 7.040-2.784h620.128c2.752 0 5.088 1.184 7.040 2.784l77.696 78.432c1.952 1.952 2.752 4.32 2.752 7.072v625.472c0 2.784-1.184 5.12-2.752 7.104l-78.080 78.816c-1.952 1.952-4.32 2.72-7.040 2.72zM206.336 894.528h611.52l72.256-72.928v-617.216l-72.256-72.928h-611.52l-72.224 72.928v617.6l72.224 72.512zM775.712 855.904h-527.168c-2.72 0-5.088-1.184-7.040-2.784l-66.4-67.008c-1.952-1.952-2.72-4.352-2.72-7.072v-532.064c0-2.784 1.184-5.12 2.72-7.104l66.4-67.008c1.952-1.952 4.288-2.752 7.040-2.752h527.168c2.72 0 5.056 1.184 7.040 2.752l66.4 67.008c1.952 1.984 2.72 4.352 2.72 7.104v532.064c0 2.752-1.184 5.12-2.72 7.072l-66.4 67.008c-1.952 1.568-4.704 2.752-7.040 2.752zM252.832 836.192h518.976l60.512-61.088v-524.192l-60.512-61.088h-518.976l-60.512 61.088v524.192l60.512 61.088zM740.16 810.976h-456.128c-2.72 0-5.088-1.184-7.040-2.784l-57.408-57.92c-1.952-1.984-2.72-4.352-2.72-7.104v-460.352c0-2.752 1.184-5.12 2.72-7.104l57.408-57.952c1.952-1.984 4.288-2.752 7.040-2.752h456.128c2.72 0 5.088 1.184 7.040 2.752l57.408 57.952c1.952 1.984 2.72 4.352 2.72 7.104v460.352c0 2.784-1.184 5.12-2.72 7.104l-57.792 57.536c-1.568 1.984-4.288 3.168-6.624 3.168zM288.352 791.264h447.904l51.936-52.416v-452.064l-51.552-52.032h-448.288l-51.552 52.032v452.064l51.552 52.416zM127.456 1008.448c-1.952 0-4.288-0.768-6.24-2.368-4.32-3.52-4.704-9.472-1.568-13.792l156.96-197.088c3.52-4.32 9.376-4.736 13.664-1.568 4.288 3.52 4.672 9.44 1.568 13.792l-156.992 197.088c-1.568 2.368-4.288 3.936-7.424 3.936zM31.392 911.488c-2.752 0-5.856-1.184-7.808-3.52-3.52-4.32-2.752-10.656 1.568-13.792l196.416-158.816c4.288-3.52 10.528-2.784 13.664 1.568 3.52 4.352 2.72 10.656-1.568 13.792l-196.416 158.432c-1.568 1.568-3.904 2.368-5.856 2.368z"></path>
</svg>
