<!-- Generated by IcoMoon.io -->
<svg version="1.1" xmlns="http://www.w3.org/2000/svg" width="1024" height="1024" viewBox="0 0 1024 1024">
<title></title>
<g id="icomoon-ignore">
</g>
<path d="M824.576 1005.44h-628.736c-2.368 0-4.736-0.832-6.72-2.368l-169.024-150.88c-1.984-1.984-3.168-4.736-3.168-7.52v-661.12c0-2.752 1.184-5.504 3.168-7.104l169.024-158.784c1.984-1.568 4.352-2.784 6.72-2.784h628.736c2.368 0 4.736 0.8 6.72 2.784l172.576 158.752c1.952 1.952 3.168 4.352 3.168 7.104v661.504c0 2.784-1.184 5.568-3.552 7.52l-172.576 150.496c-1.6 1.568-3.968 2.368-6.336 2.368zM199.392 985.664h621.216l166.272-145.312v-652.416l-166.272-153.216h-620.832l-163.104 153.216v652.416l162.72 145.312zM796.928 925.216h-573.44c-2.368 0-4.736-0.768-6.72-2.752l-124-114.912c-1.984-1.952-3.168-4.32-3.168-7.104v-572.256c0-2.784 1.184-5.152 2.784-7.104l124-122.816c1.952-1.984 4.352-2.784 7.104-2.784h573.44c2.368 0 5.12 1.184 6.688 2.784l127.168 122.816c1.952 1.952 3.168 4.352 3.168 7.104v571.84c0 2.784-1.184 5.536-3.168 7.52l-126.784 114.88c-1.952 1.6-4.32 2.752-7.072 2.752zM227.456 905.504h565.92l120.832-109.408v-563.936l-120.832-117.312h-565.536l-118.080 117.312v563.552l117.696 109.792zM223.488 925.216c-1.952 0-3.936-0.768-5.92-1.952-2.368-1.6-3.936-4.352-3.936-7.136l-9.856-116.512-40.672-284.32-72.672-284.352c-0.8-2.752 0-5.536 1.6-7.904s3.968-3.936 6.72-4.352l116.512-15.392 291.456-47.392 288.672-60.032c2.784-0.416 5.504 0 7.904 1.6s3.552 3.936 3.968 6.72l13.024 97.952 42.656 309.6 71.072 286.336c0.8 3.168 0 6.336-1.952 8.672s-4.736 3.552-7.904 3.552l-118.88-2.368-295.424 48.16-283.968 68.736c-0.768 0-1.568 0.384-2.368 0.384zM112.128 236.512l70.304 274.080c0 0.384 0 0.768 0.384 1.184l40.672 285.536v0.416l9.088 105.44 272.896-66.336c0.384 0 0.384 0 0.8 0l296.608-48.576c0.768 0 1.184 0 1.952 0l107.040 1.984-68.32-274.080c0-0.416 0-0.8-0.384-1.216l-42.656-310.4-11.84-87.296-278.816 57.664-291.84 47.392-105.856 14.208zM800.096 925.216c-0.8 0-1.568 0-2.368-0.384l-283.552-68.736-295.392-48.16-118.88 2.368c-3.168 0-5.92-1.184-7.904-3.552s-2.784-5.504-1.984-8.672l71.072-286.336 42.656-310.016 13.024-97.952c0.416-2.784 1.984-5.12 3.936-6.72 2.368-1.6 5.152-2.368 7.904-1.6l288.704 60.032 291.84 47.392 116.128 15.392c2.752 0.384 5.12 1.984 6.688 4.352s1.984 5.12 1.6 7.904l-72.672 284.352-40.672 284.352-10.272 116.512c-0.384 2.752-1.568 5.504-3.936 7.136-1.984 1.6-3.968 2.336-5.92 2.336zM219.552 787.84c0.416 0 1.184 0 1.6 0l296.576 48.576c0.384 0 0.384 0 0.768 0l272.896 66.304 9.088-105.408v-0.416l40.704-285.536c0-0.384 0-0.768 0.384-1.184l70.304-274.080-105.472-13.408-292.64-47.392-278.816-58.048-11.456 87.264-42.656 310.4c0 0.416 0 0.8-0.416 1.216l-68.32 274.080 107.424-2.368zM997.152 854.944c-1.568 0-3.52-0.384-5.12-1.568l-73.856-45.408c-4.736-2.784-5.92-9.088-3.168-13.44 2.784-4.736 9.088-5.92 13.408-3.168l73.856 45.408c4.736 2.752 5.952 9.088 3.168 13.408-1.984 3.168-5.12 4.736-8.288 4.736zM824.576 1005.056c-4.352 0-8.288-2.784-9.472-7.136l-24.896-80.96c-1.568-5.152 1.184-10.688 6.336-12.256s10.688 1.184 12.256 6.336l24.864 80.96c1.568 5.12-1.216 10.624-6.336 12.256-0.8 0.384-1.984 0.8-2.752 0.8zM195.456 1004.64c-1.184 0-2.368 0-3.168-0.384-5.12-1.984-7.904-7.52-5.92-12.64l28.416-80.16c1.984-5.152 7.488-7.904 12.64-5.92s7.904 7.488 5.92 12.64l-28.416 80.16c-1.568 3.968-5.12 6.336-9.472 6.336zM27.232 854.56c-3.168 0-6.72-1.568-8.288-4.736-2.752-4.768-1.184-10.656 3.168-13.472l73.056-44.64c4.736-2.752 10.656-1.184 13.44 3.168 2.784 4.736 1.184 10.688-3.168 13.408l-73.056 44.64c-1.568 1.184-3.552 1.568-5.12 1.568zM100.288 237.696c-1.6 0-3.552-0.416-5.12-1.6l-72.672-43.84c-4.736-2.784-6.336-9.088-3.168-13.44 2.784-4.736 9.088-6.304 13.44-3.168l72.672 44.256c4.736 2.784 6.304 9.088 3.168 13.44-1.984 2.784-5.12 4.352-8.288 4.352zM225.088 114.88c-3.936 0-7.904-2.368-9.504-6.304l-28.832-79.776c-1.984-5.152 0.8-10.656 5.92-12.64s10.656 0.8 12.64 5.92l28.832 79.776c1.984 5.152-0.8 10.656-5.92 12.64-1.184 0.384-2.368 0.384-3.168 0.384zM796.928 115.68c-1.184 0-1.952 0-3.168-0.384-5.12-1.6-7.904-7.52-6.336-12.64l27.648-80.576c1.6-5.12 7.52-7.904 12.64-6.336 5.152 1.568 7.936 7.488 6.336 12.64l-27.648 80.576c-1.568 3.936-5.536 6.688-9.472 6.688zM923.712 238.496c-3.168 0-6.688-1.6-8.288-4.768-2.752-4.736-1.568-10.656 3.168-13.44l73.472-45.024c4.736-2.752 10.656-1.568 13.408 3.168s1.568 10.656-3.168 13.44l-73.472 45.408c-1.568 0.768-3.552 1.184-5.12 1.184z"></path>
</svg>
